<svg width="404" height="83" viewBox="0 0 404 83" fill="none" xmlns="http://www.w3.org/2000/svg">
<path d="M97.5547 58.9434C97.5547 57.2051 96.8516 55.8086 95.4453 54.7539C94.0586 53.6992 91.959 52.8789 89.1465 52.293C86.334 51.6875 84.1465 51.0039 82.584 50.2422C81.041 49.4609 79.8887 48.5137 79.127 47.4004C78.3848 46.2871 78.0137 44.9395 78.0137 43.3574C78.0137 40.8574 79.0586 38.7969 81.1484 37.1758C83.2383 35.5352 85.9141 34.7148 89.1758 34.7148C92.7109 34.7148 95.543 35.5938 97.6719 37.3516C99.8203 39.0898 100.895 41.3652 100.895 44.1777H97.3789C97.3789 42.3223 96.5977 40.7793 95.0352 39.5488C93.4922 38.3184 91.5391 37.7031 89.1758 37.7031C86.8711 37.7031 85.0156 38.2207 83.6094 39.2559C82.2227 40.2715 81.5293 41.5996 81.5293 43.2402C81.5293 44.8223 82.1055 46.0527 83.2578 46.9316C84.4297 47.791 86.5488 48.582 89.6152 49.3047C92.7012 50.0273 95.0059 50.7988 96.5293 51.6191C98.0723 52.4395 99.2148 53.4258 99.957 54.5781C100.699 55.7305 101.07 57.127 101.07 58.7676C101.07 61.4434 99.9863 63.582 97.8184 65.1836C95.6699 66.7852 92.8574 67.5859 89.3809 67.5859C85.6895 67.5859 82.6914 66.6973 80.3867 64.9199C78.1016 63.123 76.959 60.8574 76.959 58.123H80.4746C80.6113 60.1738 81.4707 61.7754 83.0527 62.9277C84.6543 64.0605 86.7637 64.627 89.3809 64.627C91.8223 64.627 93.7949 64.0898 95.2988 63.0156C96.8027 61.9414 97.5547 60.584 97.5547 58.9434ZM107.574 50.8574C107.574 45.9355 108.668 42.0195 110.855 39.1094C113.062 36.1797 116.051 34.7148 119.82 34.7148C124.098 34.7148 127.359 36.4043 129.605 39.7832V22H133.092V67H129.811L129.664 62.7812C127.418 65.9844 124.117 67.5859 119.762 67.5859C116.109 67.5859 113.16 66.1211 110.914 63.1914C108.688 60.2422 107.574 56.2676 107.574 51.2676V50.8574ZM111.119 51.4727C111.119 55.5156 111.93 58.709 113.551 61.0527C115.172 63.377 117.457 64.5391 120.406 64.5391C124.723 64.5391 127.789 62.6348 129.605 58.8262V43.9434C127.789 39.8223 124.742 37.7617 120.465 37.7617C117.516 37.7617 115.221 38.9238 113.58 41.248C111.939 43.5527 111.119 46.9609 111.119 51.4727ZM140.914 50.8574C140.914 45.8965 142.008 41.9707 144.195 39.0801C146.402 36.1699 149.391 34.7148 153.16 34.7148C157.477 34.7148 160.758 36.4336 163.004 39.8711L163.18 35.3008H166.461V66.3555C166.461 70.4375 165.318 73.6699 163.033 76.0527C160.748 78.4355 157.652 79.627 153.746 79.627C151.539 79.627 149.43 79.1289 147.418 78.1328C145.426 77.1562 143.854 75.8477 142.701 74.207L144.664 72.0977C147.145 75.1445 150.094 76.668 153.512 76.668C156.441 76.668 158.727 75.7988 160.367 74.0605C162.008 72.3418 162.857 69.9492 162.916 66.8828V62.8984C160.67 66.0234 157.398 67.5859 153.102 67.5859C149.43 67.5859 146.48 66.1211 144.254 63.1914C142.027 60.2617 140.914 56.3066 140.914 51.3262V50.8574ZM144.459 51.4727C144.459 55.5156 145.27 58.709 146.891 61.0527C148.512 63.377 150.797 64.5391 153.746 64.5391C158.062 64.5391 161.119 62.6055 162.916 58.7383V44.002C162.096 41.9707 160.914 40.4277 159.371 39.373C157.828 38.2988 155.973 37.7617 153.805 37.7617C150.855 37.7617 148.561 38.9238 146.92 41.248C145.279 43.5527 144.459 46.9609 144.459 51.4727ZM172.965 50.8574C172.965 47.7129 173.57 44.9102 174.781 42.4492C175.992 39.9883 177.73 38.084 179.996 36.7363C182.281 35.3887 184.928 34.7148 187.936 34.7148C192.213 34.7148 195.699 36.0234 198.395 38.6406C201.109 41.2578 202.623 44.8125 202.936 49.3047L202.994 51.4727C202.994 56.3359 201.637 60.2422 198.922 63.1914C196.207 66.1211 192.564 67.5859 187.994 67.5859C183.424 67.5859 179.771 66.1211 177.037 63.1914C174.322 60.2617 172.965 56.2773 172.965 51.2383V50.8574ZM181.432 51.4727C181.432 54.4805 181.998 56.7852 183.131 58.3867C184.264 59.9688 185.885 60.7598 187.994 60.7598C190.045 60.7598 191.646 59.9785 192.799 58.416C193.951 56.834 194.527 54.3145 194.527 50.8574C194.527 47.9082 193.951 45.623 192.799 44.002C191.646 42.3809 190.025 41.5703 187.936 41.5703C185.865 41.5703 184.264 42.3809 183.131 44.002C181.998 45.6035 181.432 48.0938 181.432 51.4727ZM219.605 56.6582L225.494 35.3008H234.342L223.648 67H215.562L204.869 35.3008H213.717L219.605 56.6582ZM252.271 67.5859C247.623 67.5859 243.834 66.1602 240.904 63.3086C237.994 60.457 236.539 56.6582 236.539 51.9121V51.0918C236.539 47.9082 237.154 45.0664 238.385 42.5664C239.615 40.0469 241.354 38.1133 243.6 36.7656C245.865 35.3984 248.443 34.7148 251.334 34.7148C255.67 34.7148 259.078 36.082 261.559 38.8164C264.059 41.5508 265.309 45.4277 265.309 50.4473V53.9043H245.123C245.396 55.9746 246.217 57.6348 247.584 58.8848C248.971 60.1348 250.719 60.7598 252.828 60.7598C256.09 60.7598 258.639 59.5781 260.475 57.2148L264.635 61.873C263.365 63.6699 261.646 65.0762 259.479 66.0918C257.311 67.0879 254.908 67.5859 252.271 67.5859ZM251.305 41.5703C249.625 41.5703 248.258 42.1367 247.203 43.2695C246.168 44.4023 245.504 46.0234 245.211 48.1328H256.988V47.459C256.949 45.584 256.441 44.1387 255.465 43.123C254.488 42.0879 253.102 41.5703 251.305 41.5703ZM287.955 43.2402C286.803 43.084 285.787 43.0059 284.908 43.0059C281.705 43.0059 279.605 44.0898 278.609 46.2578V67H270.143V35.3008H278.141L278.375 39.0801C280.074 36.1699 282.428 34.7148 285.436 34.7148C286.373 34.7148 287.252 34.8418 288.072 35.0957L287.955 43.2402ZM313.297 28.5625C311.617 28.3672 310.055 28.2695 308.609 28.2695C304.781 28.2695 302.867 29.9004 302.867 33.1621V35.3008H309.166V41.5117H302.867V67H294.371V41.5117H289.654V35.3008H294.371V32.8398C294.41 29.168 295.562 26.3457 297.828 24.373C300.094 22.3809 303.297 21.3848 307.438 21.3848C310.387 21.3848 315.172 21.6973 321.793 22.3223V67H313.297V28.5625ZM327.535 50.8574C327.535 47.7129 328.141 44.9102 329.352 42.4492C330.562 39.9883 332.301 38.084 334.566 36.7363C336.852 35.3887 339.498 34.7148 342.506 34.7148C346.783 34.7148 350.27 36.0234 352.965 38.6406C355.68 41.2578 357.193 44.8125 357.506 49.3047L357.564 51.4727C357.564 56.3359 356.207 60.2422 353.492 63.1914C350.777 66.1211 347.135 67.5859 342.564 67.5859C337.994 67.5859 334.342 66.1211 331.607 63.1914C328.893 60.2617 327.535 56.2773 327.535 51.2383V50.8574ZM336.002 51.4727C336.002 54.4805 336.568 56.7852 337.701 58.3867C338.834 59.9688 340.455 60.7598 342.564 60.7598C344.615 60.7598 346.217 59.9785 347.369 58.416C348.521 56.834 349.098 54.3145 349.098 50.8574C349.098 47.9082 348.521 45.623 347.369 44.002C346.217 42.3809 344.596 41.5703 342.506 41.5703C340.436 41.5703 338.834 42.3809 337.701 44.002C336.568 45.6035 336.002 48.0938 336.002 51.4727ZM390.348 55.4863L394.508 35.3008H402.682L394.596 67H387.506L381.5 47.0488L375.494 67H368.434L360.348 35.3008H368.521L372.652 55.457L378.453 35.3008H384.576L390.348 55.4863Z" fill="black"/>
<path d="M58.5 74.8V52.8H65.9V82.1H0V52.8H7.3V74.8H58.5Z" fill="#C5A7B4"/>
<path d="M15.4 50.8L51.3 58.3L52.8 51.1L16.9 43.6L15.4 50.8ZM20.1 33.6L53.3 49.1L56.4 42.5L23.2 26.9L20.1 33.6ZM29.3 17.3L57.5 40.7L62.2 35.1L34 11.7L29.3 17.3ZM47.5 0L41.6 4.4L63.5 33.8L69.4 29.4L47.5 0ZM14.6 67.4H51.2V60.1H14.6V67.4Z" fill="#885780"/>
</svg>
